# xmcd
#
# Track frame offsets: 
#        182
#        20200
#        41285
#        61855
#        80985
#        97040
#        116122
#        136060
#        154945
#        170410
#
# Disc length: 2515 seconds
#
# Revision: 4
# Processed by: cddbd v1.5.2PL0 Copyright (c) Steve Scherf et al.
# Submitted via: ExactAudioCopy v0.99pb4
#
DISCID=8509d10a
DTITLE=Reba McEntire - Starting Over
DYEAR=1995
DGENRE=Country
TTITLE0=Talking In Your Sleep
TTITLE1=Please Come To Boston
TTITLE2=On My Own
TTITLE3=I Won't Mention It Again
TTITLE4=You're No Good
TTITLE5=Ring On Her Finger, Time On Her Hands
TTITLE6=Five Hundred Miles Away From Home
TTITLE7=Starting Over Again
TTITLE8=You Keep Me Hangin' On
TTITLE9=By The Time I Get To Phoenix
EXTD=MCA Records\nMCD-11264\n# 0881-11264-2
EXTT0=
EXTT1=
EXTT2=
EXTT3=
EXTT4=
EXTT5=
EXTT6=
EXTT7=
EXTT8=
EXTT9=
PLAYORDER=
